<svg xmlns="http://www.w3.org/2000/svg" xmlns:xlink="http://www.w3.org/1999/xlink" viewBox="0 0 58 58"><defs><style>.cls-1{fill:url(#radial-gradient);}.cls-2{fill:#00b212;}</style><radialGradient id="radial-gradient" cx="29" cy="29" r="29" gradientUnits="userSpaceOnUse"><stop offset="0" stop-color="#fff"/><stop offset="1" stop-color="#c2c2c2"/></radialGradient></defs><title>accept</title><g id="Layer_2" data-name="Layer 2"><g id="Layer_1-2" data-name="Layer 1"><circle class="cls-1" cx="29" cy="29" r="29"/><path class="cls-2" d="M4.78,36.06a34.18,34.18,0,0,1,9.88,5.21C18,43.78,26.5,52.84,23.59,49.89h0A90.22,90.22,0,0,1,48.66,25.08c-.29-1.8-.53-3.75-.68-5.83a63.33,63.33,0,0,1,0-8.94C38.17,16,33.13,22.2,30.34,27.05c-2.12,3.66-6.5,12.69-6.59,12.64h0c-.1-.32-7.78-11.3-7.78-11.3A64.26,64.26,0,0,1,10.3,32.7C8.37,34,6.51,35.12,4.78,36.06Z"/></g></g></svg>