<svg xmlns="http://www.w3.org/2000/svg" viewBox="0 0 290 111"><defs><style>.cls-1{fill:#4bc29f;}.cls-2{fill:none;stroke:#ff9d1f;stroke-width:3px;}.cls-3{fill:#ff9d1f;}</style></defs><title>dialog_troops</title><g id="Layer_2" data-name="Layer 2"><g id="Layer_1-2" data-name="Layer 1"><rect class="cls-1" width="290" height="111" rx="12" ry="12"/><rect x="10.03" y="14.52" width="89.87" height="31.63"/><rect x="189.03" y="14.52" width="89.87" height="31.63"/><line class="cls-2" x1="176.89" y1="30.33" x2="107.65" y2="30.33"/><path class="cls-3" d="M175.68,30.33c-3.13,3.14-4.63,9.34-4.75,13.64,4.3-5.78,9.88-10.81,16.64-13.64-6.76-2.7-12.1-8-16.64-13.63C171.3,21.31,172.42,26.9,175.68,30.33Z"/><line class="cls-2" x1="112.5" y1="30.33" x2="181.73" y2="30.33"/><path class="cls-3" d="M113.71,30.33c3.13-3.13,4.63-9.33,4.75-13.63-4.3,5.77-9.88,10.81-16.64,13.63,6.76,2.71,12.1,8.05,16.64,13.64C118.09,39.36,117,33.77,113.71,30.33Z"/></g></g></svg>