<?xml version="1.0" encoding="UTF-8" standalone="no"?>
<!-- Created with Inkscape (http://www.inkscape.org/) -->
<svg
   xmlns:dc="http://purl.org/dc/elements/1.1/"
   xmlns:cc="http://creativecommons.org/ns#"
   xmlns:rdf="http://www.w3.org/1999/02/22-rdf-syntax-ns#"
   xmlns:svg="http://www.w3.org/2000/svg"
   xmlns="http://www.w3.org/2000/svg"
   xmlns:sodipodi="http://sodipodi.sourceforge.net/DTD/sodipodi-0.dtd"
   xmlns:inkscape="http://www.inkscape.org/namespaces/inkscape"
   width="650"
   height="505"
   id="svg2"
   sodipodi:version="0.32"
   inkscape:version="0.46"
   sodipodi:docname="dado.svg"
   inkscape:output_extension="org.inkscape.output.svg.inkscape"
   version="1.0">
  <defs
     id="defs4">
    <inkscape:perspective
       sodipodi:type="inkscape:persp3d"
       inkscape:vp_x="0 : 526.18109 : 1"
       inkscape:vp_y="0 : 1000 : 0"
       inkscape:vp_z="744.09448 : 526.18109 : 1"
       inkscape:persp3d-origin="372.04724 : 350.78739 : 1"
       id="perspective10" />
    <inkscape:perspective
       id="perspective2390"
       inkscape:persp3d-origin="372.04724 : 350.78739 : 1"
       inkscape:vp_z="744.09448 : 526.18109 : 1"
       inkscape:vp_y="0 : 1000 : 0"
       inkscape:vp_x="0 : 526.18109 : 1"
       sodipodi:type="inkscape:persp3d" />
    <filter
       inkscape:collect="always"
       id="filter3352"
       x="-0.11273054"
       width="1.2254611"
       y="-0.27337155"
       height="1.5467432">
      <feGaussianBlur
         inkscape:collect="always"
         stdDeviation="27.69722"
         id="feGaussianBlur3354" />
    </filter>
  </defs>
  <sodipodi:namedview
     id="base"
     pagecolor="#ffffff"
     bordercolor="#666666"
     borderopacity="1.0"
     gridtolerance="10000"
     guidetolerance="10"
     objecttolerance="10"
     inkscape:pageopacity="0.0"
     inkscape:pageshadow="2"
     inkscape:zoom="0.35"
     inkscape:cx="-478.97852"
     inkscape:cy="407.56393"
     inkscape:document-units="px"
     inkscape:current-layer="layer1"
     showgrid="false"
     inkscape:window-width="1270"
     inkscape:window-height="969"
     inkscape:window-x="308"
     inkscape:window-y="77" />
  <metadata
     id="metadata7">
    <rdf:RDF>
      <cc:Work
         rdf:about="">
        <dc:format>image/svg+xml</dc:format>
        <dc:type
           rdf:resource="http://purl.org/dc/dcmitype/StillImage" />
      </cc:Work>
    </rdf:RDF>
  </metadata>
  <g
     inkscape:label="Layer 1"
     inkscape:groupmode="layer"
     id="layer1">
    <g
       id="dado"
       inkscape:label="#g3358"
       transform="translate(543.05981,-498.72995)">
      <rect
         y="501.19702"
         x="-543.05981"
         height="502.53293"
         width="646.40326"
         id="rect3356"
         style="opacity:0;fill:#ffffff;fill-opacity:1;fill-rule:evenodd;stroke:none;stroke-width:4;stroke-linecap:butt;stroke-linejoin:miter;marker:none;marker-start:none;marker-mid:none;marker-end:none;stroke-miterlimit:4;stroke-dasharray:none;stroke-dashoffset:0;stroke-opacity:1;visibility:visible;display:inline;overflow:visible;enable-background:accumulate" />
      <path
         id="path2448"
         d="M 76.474164,827.43817 L -109.94934,965.22946 L -154.52888,965.22946 L -383.50557,930.78164 L -513.19149,825.41183 L -499.00709,782.85864 L -334.87335,722.06836 L 76.474164,827.43817 z"
         style="opacity:0.4672897;fill:#000000;fill-rule:evenodd;stroke:none;stroke-width:1px;stroke-linecap:butt;stroke-linejoin:miter;stroke-opacity:1;filter:url(#filter3352)" />
      <g
         id="g2424">
        <path
           id="path2406"
           d="M -182.41205,953.58548 C -184.68576,952.87413 -189.06439,950.85128 -192.14233,949.09026 C -200.61525,944.24255 -343.58677,840.59229 -348.9892,835.38077 C -354.77554,829.79891 -357.27678,823.55184 -359.27927,809.68048 C -360.08658,804.08816 -366.42093,755.86263 -373.3556,702.51263 C -387.72804,591.94222 -387.78741,591.08838 -381.95165,578.87088 C -376.61572,567.69979 -365.02232,558.4047 -351.73531,554.6447 C -338.39207,550.8688 -166.27698,514.01263 -161.98708,514.01263 C -157.29434,514.01263 7.45123,550.14925 20.22198,553.97983 C 35.382,558.52708 47.61315,570.19462 51.63372,583.94413 C 52.50726,586.93146 53.22198,592.98431 53.22198,597.39492 C 53.22198,608.56849 31.50092,819.34603 29.69996,825.64871 C 26.78328,835.85596 25.61985,836.71448 -61.06504,892.62589 C -150.49846,950.31009 -150.59238,950.36838 -158.45918,953.07496 C -165.00065,955.32555 -176.0944,955.562 -182.41205,953.58548 z M -158.10968,650.43455 C -157.21794,648.1107 -161.05497,643.51263 -163.88594,643.51263 C -165.73052,643.51263 -166.34831,644.11992 -166.58511,646.16594 C -167.09122,650.53875 -159.59788,654.31273 -158.10968,650.43455 z"
           style="fill:#af9053" />
        <path
           style="fill:#6f5b33"
           d="M -181.49071,953.56226 C -206.69028,941.76015 -227.56527,922.36619 -250.72744,907.10377 C -284.34439,882.07854 -319.45907,858.77231 -351.66543,832.01422 C -362.63589,811.7998 -359.71508,786.47072 -364.88065,764.24256 C -371.83446,707.84763 -381.21602,651.65882 -385.38699,594.98068 C -385.49226,569.20474 -359.94143,554.11555 -336.92683,551.86544 C -278.91876,538.59859 -220.93967,524.73499 -162.27802,514.70726 C -102.27204,525.21921 -43.018609,540.03718 16.355826,553.70424 C 41.52421,557.20407 57.968147,583.4296 52.211633,607.75995 C 45.927959,679.67282 38.220618,751.47149 30.12715,823.2007 C 24.223974,843.89783 0.74290353,850.07595 -14.512816,862.35523 C -60.593483,891.71595 -105.727,922.72763 -152.71757,950.57041 C -161.61274,954.62032 -171.97049,956.55364 -181.49071,953.56226 z M -104.11107,894.46484 C -92.044903,891.91284 -80.565845,864.77768 -83.154185,862.74907 C -101.59225,891.67064 -82.946527,835.02796 -107.99941,847.45917 C -125.76121,854.33539 -130.92687,881.83881 -121.0543,896.76263 C -115.68519,899.84886 -109.15285,896.8606 -104.11107,894.46484 z M -3.34374,832.0387 C 7.0519116,832.29092 19.785534,801.05798 14.44898,805.55542 C 0.026473944,825.99946 12.62111,772.51827 -9.1864325,791.69265 C -16.561715,801.1324 -27.369459,841.35111 -3.34374,832.0387 z M -96.218369,745.09222 C -82.669638,744.10215 -68.391852,696.71335 -85.198249,723.62656 C -95.837375,727.87836 -80.139062,694.08135 -99.491885,695.15638 C -125.28925,691.65233 -127.95215,723.88117 -122.10111,741.57953 C -117.84016,752.77924 -104.33434,749.53057 -96.218369,745.09222 z M 11.87043,693.98956 C 23.774932,692.80994 37.15096,651.9179 21.054429,675.9036 C 14.294964,673.0849 23.976867,639.81271 1.4519,650.08233 C -9.8349991,659.17685 -15.37877,708.47927 11.87043,693.98956 z M -152.02802,656.26678 C -142.51116,635.94703 -182.92853,628.51024 -170.1865,652.04648 C -166.03514,656.38782 -157.39452,661.38401 -152.02802,656.26678 z M -156.50243,598.03241 C -146.90882,593.31631 -189.40845,589.37107 -163.82128,584.9 C -151.1742,584.15177 -145.13331,583.3256 -161.38778,581.10456 C -173.97308,580.20155 -207.17148,578.51339 -203.96611,593.92859 C -189.25091,600.94115 -172.23414,600.57515 -156.50243,598.03241 z M -154.52802,535.37079 C -144.14699,532.58849 -177.60767,528.99058 -157.3681,526.30071 C -136.16041,522.08423 -187.58278,520.87064 -193.02065,528.99399 C -187.43778,537.21458 -165.01665,536.1023 -154.52802,535.37079 z"
           id="path2404" />
        <path
           id="path2402"
           d="M -181.4907,953.56225 C -183.80768,952.83813 -188.30768,950.78135 -191.4907,948.99163 C -200.17778,944.10714 -343.56787,840.21544 -348.88475,834.95352 C -351.91928,831.95035 -354.24106,828.39097 -355.68784,824.52411 C -357.37968,820.00227 -361.10266,794.05867 -371.89518,711.58322 C -387.45412,592.68318 -387.39681,593.40671 -382.26352,580.69372 C -378.66952,571.79287 -369.79561,562.55091 -360.67827,558.21319 C -351.57885,553.88399 -172.77206,514.67459 -162.27802,514.70726 C -156.89194,514.72403 -135.0734,519.23962 -67.64537,534.29256 C -19.44741,545.05249 22.40259,554.87996 25.35463,556.13139 C 36.68049,560.93263 44.97114,568.85446 49.87096,579.55708 C 54.59133,589.86772 54.46518,592.0486 42.29618,710.51263 C 36.19443,769.91263 30.71836,820.62226 30.12715,823.2007 C 28.70994,829.38149 24.5171,835.83683 19.10622,840.16863 C 14.85273,843.57385 -140.73939,944.03925 -149.77802,949.21672 C -159.36994,954.71111 -172.1926,956.46818 -181.4907,953.56225 z M -104.11107,894.46483 C -96.04852,890.27866 -92.24062,886.32451 -87.39903,877.11097 C -82.88717,868.52488 -80.77802,860.45253 -80.77802,851.77041 C -80.77802,836.40182 -87.45993,831.62769 -100.19509,837.89719 C -116.31931,845.83512 -125.86379,861.84304 -126.07495,881.30267 C -126.15488,888.66978 -123.59033,896.12102 -120.55476,897.34144 C -116.67202,898.90245 -110.61822,897.84341 -104.11107,894.46483 z M -220.39486,893.7119 C -215.99943,887.80222 -217.47754,869.86542 -223.38987,857.36779 C -228.62987,846.29133 -243.13209,834.01263 -250.97436,834.01263 C -254.52879,834.01263 -257.35278,836.81907 -258.70751,841.6977 C -260.13457,846.83682 -260.05063,850.4059 -258.28467,859.67466 C -256.39564,869.58937 -252.3093,877.91872 -245.70589,885.31447 C -235.73206,896.48507 -225.08478,900.01751 -220.39486,893.7119 z M 1.13496,829.31934 C 9.92745,823.27589 16.36365,810.91818 18.04328,796.85479 C 19.56323,784.12847 16.80172,776.99911 10.3612,777.02201 C 3.76754,777.04546 -7.4099,786.40586 -12.25012,795.95757 C -18.94266,809.16467 -19.68917,830.67953 -13.54906,833.39381 C -10.50415,834.73984 -4.2105,832.9935 1.13496,829.31934 z M -319.17772,831.24732 C -313.78589,827.6471 -315.09849,808.47277 -321.70291,794.35944 C -326.69352,783.69476 -338.31812,773.92743 -344.24861,775.41589 C -347.36219,776.19735 -348.78026,780.09032 -348.76324,787.80968 C -348.74533,795.92981 -346.64672,805.3002 -343.22714,812.52861 C -337.6864,824.24075 -324.29476,834.66405 -319.17772,831.24732 z M -224.90888,823.45187 C -219.29506,816.31504 -220.39919,796.23381 -227.15727,782.55977 C -233.36417,770.00097 -245.59587,760.04769 -254.85371,760.0224 C -263.5667,759.99859 -266.78332,771.31169 -263.28467,789.67466 C -261.28466,800.17187 -256.8282,808.88842 -249.77722,816.09432 C -240.29616,825.78371 -229.30177,829.03651 -224.90888,823.45187 z M -325.8338,765.06841 C -323.23838,762.47299 -322.377,757.25641 -323.11981,748.63238 C -324.78968,729.24517 -332.97637,714.07803 -344.61689,708.80564 C -353.17738,704.9283 -357.03077,709.03354 -356.92087,721.91378 C -356.76026,740.7383 -347.2891,759.65529 -335.27802,765.14162 C -330.15035,767.48379 -328.23433,767.46894 -325.8338,765.06841 z M -96.21837,745.0922 C -88.72416,741.32579 -86.86108,739.35233 -82.45425,730.51263 C -77.04919,719.67056 -75.38461,712.87864 -75.34685,701.51263 C -75.30869,690.02855 -77.50706,683.78533 -82.66107,680.74079 C -91.66072,675.42456 -107.71831,682.41285 -116.32434,695.39111 C -122.39015,704.5386 -124.07664,710.8951 -124.18345,725.01263 C -124.26694,736.04767 -124.02289,737.98926 -122.10111,741.57953 C -119.41996,746.58843 -117.69038,748.07388 -113.52186,748.94784 C -108.95986,749.90428 -103.27093,748.63665 -96.21837,745.0922 z M -231.08387,747.5143 C -229.90734,746.69023 -228.11971,743.87773 -227.11137,741.2643 C -224.7921,735.25322 -224.822,720.29296 -227.17161,711.12153 C -231.78693,693.10619 -245.31861,679.10943 -258.37337,678.84739 C -262.65063,678.76154 -263.50386,679.11949 -265.91966,682.01323 C -273.72289,691.36023 -271.01916,717.43855 -260.63457,732.98959 C -252.43623,745.2667 -238.00321,752.3608 -231.08387,747.5143 z M 11.87043,693.98955 C 19.41198,690.09337 22.5699,686.32657 26.21163,676.88325 C 30.22171,666.48476 31.34177,660.95988 31.37033,651.43703 C 31.40948,638.38561 28.61809,634.01263 20.24788,634.01263 C 14.75276,634.01263 9.33755,636.93838 4.35427,642.59968 C -1.38098,649.11527 -4.46675,656.03968 -6.24917,666.39362 C -8.30553,678.3389 -8.17197,685.54792 -5.79736,690.77957 C -2.64386,697.72728 2.74166,698.70574 11.87043,693.98955 z M -332.46799,692.23292 C -328.62204,685.6247 -330.85379,663.89305 -336.64978,651.51263 C -341.82945,640.44869 -350.05254,633.57923 -357.375,634.19906 C -363.0209,634.67698 -365.18734,638.26564 -365.60397,647.83014 C -366.65704,672.006 -352.60248,696.70851 -338.32739,695.77185 C -335.04613,695.55655 -334.05334,694.95694 -332.46799,692.23292 z M -152.02802,656.26677 C -148.03045,651.03348 -154.42362,638.60482 -162.48098,635.94565 C -168.19294,634.06053 -172.77802,638.5787 -172.77802,646.09241 C -172.77802,654.41839 -156.65498,662.32401 -152.02802,656.26677 z M -161.60266,599.07141 C -152.60875,597.59819 -141.83763,594.07224 -139.6508,591.88541 C -137.10201,589.33662 -138.3788,587.54133 -144.65293,584.85192 C -160.22323,578.17772 -188.12336,578.89774 -202.46461,586.34389 C -209.09062,589.7842 -208.05554,593.10424 -199.48161,595.91194 C -187.46707,599.84634 -173.46403,601.01433 -161.60266,599.07141 z M -149.66077,534.4309 C -145.07477,533.56095 -139.76585,532.19873 -137.86318,531.40374 C -134.87903,530.15689 -134.6012,529.76775 -135.84089,528.57123 C -140.76223,523.82125 -167.89378,521.37792 -180.90205,524.51325 C -189.01076,526.46765 -193.77802,528.52244 -193.77802,530.06306 C -193.77802,532.59199 -179.26297,535.77902 -167.13849,535.91222 C -162.11175,535.96745 -154.24677,535.30085 -149.66077,534.4309 z"
           style="fill:#ea0101" />
        <path
           style="fill:#cf0000;stroke:none"
           d="M -181.49071,953.56226 C -214.42591,936.79822 -241.98705,911.52096 -272.61911,891.12165 C -299.09263,872.07976 -325.88799,853.41235 -351.02448,832.60074 C -363.26081,807.69472 -360.92566,778.92574 -366.56863,752.26783 C -373.46159,697.78966 -382.34219,643.31319 -385.5535,588.5367 C -380.45022,566.50972 -355.39425,546.58356 -335.46057,565.12805 C -288.43261,581.37499 -241.04001,596.56103 -194.27534,613.60439 C -181.76956,628.17192 -192.43923,654.72877 -170.31043,663.40188 C -150.44251,678.72352 -125.91599,671.25557 -105.67119,661.59256 C -53.324987,641.68371 -0.31728885,621.75451 51.344749,601.16926 C 54.569014,619.52898 47.567522,640.04399 47.286284,659.3953 C 41.555492,713.78706 36.918407,768.30186 29.935915,822.55575 C 22.388727,847.1985 -6.3138368,852.99946 -24.028726,868.34523 C -67.816761,896.21813 -110.46072,926.13053 -155.56138,951.7935 C -163.72581,955.01064 -172.99186,956.21886 -181.49071,953.56226 z M -104.63618,898.91916 C -85.716498,887.61062 -72.422124,854.6231 -87.885696,837.02208 C -111.74469,833.55981 -129.51631,863.58413 -125.99455,885.13552 C -120.74407,898.41649 -108.46879,901.62856 -107.56614,900.26791 L -104.63618,898.91916 L -104.63618,898.91916 z M -220.39487,893.71191 C -209.78295,871.75664 -232.68897,826.1461 -256.45201,839.27072 C -266.35902,860.6912 -249.88386,889.38259 -228.52639,896.72349 C -225.54449,897.27294 -222.25876,896.16483 -220.39487,893.71191 z M -1.86397,835.05649 C 14.33067,824.37379 30.310807,783.85055 6.3039012,778.33739 C -14.520312,783.50717 -31.514724,832.62695 -3.511219,833.08526 C -9.9276087,839.34116 -5.1957628,836.42712 -1.86397,835.05649 z M -319.17773,831.24731 C -308.86811,813.21948 -324.91409,769.64689 -346.89547,780.55268 C -354.2731,798.28046 -339.77348,830.87837 -319.17773,831.24731 z M -224.90887,823.45187 C -212.34879,800.77145 -233.27269,751.4724 -261.15082,765.1215 C -272.32438,787.28253 -256.12314,820.29668 -232.0986,826.16367 L -228.38771,825.58057 L -224.90887,823.45187 L -224.90887,823.45187 z M -325.8338,765.06842 C -318.14153,745.0159 -327.12393,710.54762 -351.39923,709.05031 C -365.47188,726.14596 -351.7645,758.63958 -331.86692,766.53467 L -328.80507,766.44751 L -325.8338,765.06842 L -325.8338,765.06842 z M -105.57724,752.88943 C -78.828732,746.44713 -73.579133,712.99835 -76.118534,689.73884 C -92.200335,664.14533 -125.92959,694.53776 -124.25927,717.63401 C -130.61431,733.25179 -116.24317,752.88227 -104.19432,749.55277 C -108.29118,751.26807 -115.90408,756.25894 -105.57724,752.88943 z M -231.08388,747.51431 C -217.31699,724.67819 -228.4032,689.85709 -252.75364,679.32819 C -280.10719,681.62764 -271.78162,719.26544 -259.5106,734.44617 C -253.39632,743.4235 -242.44774,751.50259 -231.08388,747.51431 z M 15.45558,696.2204 C 28.02387,680.64175 40.489432,649.9202 22.97958,634.88777 C -1.0008877,634.33499 -11.379062,665.81196 -7.3881084,685.62908 C -7.5755875,695.83893 13.314519,697.20196 5.9863775,700.0386 C 9.612758,700.54302 12.424977,697.6938 15.45558,696.2204 z M -332.46799,692.23293 C -327.54939,672.57938 -333.13911,636.72009 -357.84485,636.11887 C -375.30741,649.24949 -362.07061,678.95284 -349.35671,691.63863 C -344.89954,695.27458 -336.1983,698.78222 -332.46799,692.23293 z M -171.7774,599.9855 C -153.89506,603.95501 -122.92877,584.49749 -157.85263,581.71307 C -169.3838,580.81927 -175.144,576.33441 -159.52387,577.4051 C -147.1017,572.82803 -115.94011,591.58763 -142.87621,595.42319 C -150.51962,599.71305 -173.20188,601.10158 -175.87445,600.38534 L -171.7774,599.9855 L -171.7774,599.9855 z M -187.50899,599.31964 C -179.01552,597.09013 -187.54532,601.61829 -187.50899,599.31964 z M -191.96552,598.32951 C -185.75138,596.8597 -193.55839,600.47986 -191.96552,598.32951 z M -207.51553,592.76263 C -203.93381,581.80436 -204.15495,588.15109 -204.44057,594.86286 C -203.74028,597.31376 -202.87097,597.37867 -207.51553,592.76263 L -207.51553,592.76263 z M -169.05032,536.2909 C -160.33011,535.21892 -160.2163,537.66871 -169.05032,536.2909 z M -154.50899,535.31964 C -146.01552,533.09014 -154.54532,537.61829 -154.50899,535.31964 z M -183.96552,534.32952 C -177.75138,532.85969 -185.55838,536.47986 -183.96552,534.32952 z M -149.02802,534.35035 C -142.17307,531.95025 -148.63547,536.68053 -149.02802,534.35035 z M -143.96552,533.32952 C -137.75138,531.85969 -145.55838,535.47986 -143.96552,533.32952 z M -137.84319,531.51411 C -134.07572,520.13836 -179.6332,523.79661 -152.29171,521.12154 C -146.42261,520.91113 -112.4987,526.75735 -137.84319,531.51411 z M -194.11134,531.34596 C -184.12387,520.60511 -188.6479,528.93495 -194.11134,531.34596 L -194.11134,531.34596 z"
           id="path2400"
           sodipodi:nodetypes="ccccccccccccccccccccccccccccccccccccccccccccccccccccccccccccccccccccccccccccccccccccccccccccc" />
        <path
           style="fill:#a80000;stroke:none"
           d="M -181.49071,953.56226 C -220.45419,932.81308 -253.40971,902.85104 -290.11604,878.58248 C -310.79599,863.76718 -331.42091,848.8314 -351.02448,832.60074 C -363.86473,806.91314 -360.86367,777.17429 -366.71127,749.67383 C -373.18703,696.08471 -382.83804,642.59736 -385.33811,588.70341 C -385.29186,581.63894 -373.15393,568.30606 -377.68214,582.83873 C -358.48304,604.20883 -326.93631,603.95999 -303.26428,618.19702 C -274.36807,630.081 -244.66467,640.06988 -216.5215,653.73334 C -202.47275,670.57513 -177.10534,684.40221 -178.70237,709.19106 C -177.88377,755.60906 -176.11994,801.92447 -176.46961,848.44199 C -175.97261,872.82556 -172.93843,897.25462 -175.29629,921.49031 C -169.65146,950.6107 -137.79288,942.29801 -122.04993,927.16721 C -72.66854,896.86874 -25.041944,863.77764 24.86022,834.31754 C -18.533454,868.06077 -66.993397,894.4549 -112.21999,925.58136 C -129.41454,935.87956 -145.89786,948.94174 -165.27368,954.52719 C -170.67249,955.26549 -176.22107,954.96381 -181.49071,953.56226 z M -173.53426,929.34827 C -173.97447,922.0167 -177.19845,932.24268 -173.53426,929.34827 z M -220.39487,893.71191 C -212.84087,873.40879 -222.99288,845.98017 -243.39404,837.54333 C -275.38677,838.02206 -253.91449,888.73203 -232.47599,895.10547 C -228.8829,897.82664 -223.15608,897.31388 -220.39487,893.71191 z M -175.27802,883.01263 C -173.51064,877.0891 -181.57035,890.60857 -175.27802,883.01263 z M -319.17773,831.24731 C -311.17824,812.79519 -319.27789,780.199 -342.51976,778.71896 C -358.59941,792.31168 -341.59067,826.2718 -322.18104,831.65435 C -321.18767,831.7374 -320.17425,831.31255 -319.17773,831.24731 z M -224.90887,823.45187 C -216.02804,803.74083 -223.81568,777.06603 -241.95385,765.28147 C -269.77032,751.90401 -268.92254,793.78423 -256.21299,808.10624 C -250.16944,816.43634 -235.81303,831.89346 -224.90887,823.45187 z M -325.8338,765.06842 C -316.54438,745.63005 -330.06224,703.87504 -353.45176,712.01227 C -363.99227,731.23265 -349.90367,763.9144 -328.031,765.99081 L -326.91728,765.52327 L -325.8338,765.06842 z M -231.08388,747.51431 C -217.46034,724.42742 -228.14351,691.17931 -252.00378,679.45318 C -284.17954,683.19639 -269.93271,728.98856 -252.00411,742.66711 C -246.32246,747.43398 -238.33949,750.15671 -231.08388,747.51431 z M -332.46799,692.23293 C -324.81779,672.90159 -338.17076,624.83117 -362.93283,641.48791 C -371.67296,660.52384 -359.79156,690.28696 -339.17378,695.91215 C -336.48756,696.05931 -333.77325,694.60878 -332.46799,692.23293 z M -126.69907,886.42929 C -125.55171,882.93011 -126.56853,891.09433 -126.69907,886.42929 z M -126.58307,877.51263 C -125.72984,871.9203 -126.2918,884.05213 -126.58307,877.51263 z M -175.77802,872.01263 C -172.41892,866.34718 -175.04746,876.57331 -175.77802,872.01263 z M -83.216217,868.01263 C -65.09277,841.14059 -108.65015,822.64052 -117.58074,853.09635 C -123.01156,857.56052 -105.73709,831.24261 -95.373698,834.10737 C -72.839749,830.18987 -73.434387,856.20549 -83.216217,868.01263 z M 15.63282,808.59256 C 32.029487,788.88101 0.50813527,763.6223 -9.656999,791.18796 C -7.6956869,777.88311 24.898653,764.07585 22.157181,790.10142 C 21.363632,796.60753 19.305841,803.12201 15.63282,808.59256 z M -176.27802,804.01263 C -178.04547,798.08906 -169.98558,811.60869 -176.27802,804.01263 z M -78.439796,721.82516 C -64.170719,701.94898 -85.210806,662.82983 -108.11851,686.11361 C -114.88144,693.24041 -126.59638,711.71494 -116.02341,691.71393 C -103.42905,666.64165 -61.874387,673.64287 -72.298616,704.85897 C -72.977125,710.8812 -74.851404,716.88038 -78.439796,721.82516 z M -124.69907,715.42929 C -123.55171,711.93011 -124.56853,720.09433 -124.69907,715.42929 z M 28.250219,671.43835 C 46.338805,652.87539 14.356184,617.14071 0.79063302,646.22286 C 7.9913417,624.38526 44.554091,627.21292 34.265936,653.84943 C 33.941584,660.01565 33.452381,667.22505 28.250219,671.43835 z M -139.71111,591.94572 C -139.93774,581.82934 -163.19094,580.95312 -144.07598,582.6824 C -140.66627,583.00721 -131.10382,591.40138 -139.71111,591.94572 z M -135.48099,530.37594 C -143.06023,524.30046 -154.98093,522.18613 -138.77896,524.88652 C -136.97807,524.93954 -129.64142,529.40134 -135.48099,530.37594 z"
           id="path2398" />
      </g>
      <path
         sodipodi:nodetypes="csssssssssssssc"
         id="path2433"
         d="M -182.41205,953.58548 C -184.68576,952.87413 -189.06439,950.85128 -192.14233,949.09026 C -200.61525,944.24255 -343.58677,840.59229 -348.9892,835.38077 C -354.77554,829.79891 -357.27678,823.55184 -359.27927,809.68048 C -360.08658,804.08816 -366.42093,755.86263 -373.3556,702.51263 C -387.72804,591.94222 -387.78741,591.08838 -381.95165,578.87088 C -376.61572,567.69979 -365.02232,558.4047 -351.73531,554.6447 C -338.39207,550.8688 -166.27698,514.01263 -161.98708,514.01263 C -157.29434,514.01263 7.45123,550.14925 20.22198,553.97983 C 35.382,558.52708 47.61315,570.19462 51.63372,583.94413 C 52.50726,586.93146 53.22198,592.98431 53.22198,597.39492 C 53.22198,608.56849 31.50092,819.34603 29.69996,825.64871 C 26.78328,835.85596 25.61985,836.71448 -61.06504,892.62589 C -150.49846,950.31009 -150.59238,950.36838 -158.45918,953.07496 C -165.00065,955.32555 -176.0944,955.562 -182.41205,953.58548 z"
         style="fill:none;stroke:#000000;stroke-width:4" />
    </g>
  </g>
</svg>
