<svg xmlns="http://www.w3.org/2000/svg" viewBox="0 0 294 47">
    <defs>
        <style>.cls-1{fill:#f2d32e;}</style>
    </defs>
    <title>Asset 1</title>
    <g id="Layer_2" data-name="Layer 2">
        <g id="Layer_1-2" data-name="Layer 1">
            <rect class="cls-1" width="294" height="47" rx="12" ry="12"/>
            <path d="M113.56,8.78q-.14,3-.2,6.59t-.07,7.94a21.44,21.44,0,0,1-.53,5.2A9.06,9.06,0,0,1,111.11,32a6.85,6.85,0,0,1-2.88,2.09,11.78,11.78,0,0,1-4.22.68,13.15,13.15,0,0,1-3.4-.41l.3-2.85a6.73,6.73,0,0,0,2.89.64,8.24,8.24,0,0,0,2.94-.48,4.27,4.27,0,0,0,2-1.49,6.4,6.4,0,0,0,1.07-2.5,18.67,18.67,0,0,0,.32-3.89q0-8.86-.29-15Z"/>
            <path d="M135.85,34.19l-3,.12a7.84,7.84,0,0,1-.27-1.8h-.2A9.45,9.45,0,0,1,126,34.7q-3.37,0-4.91-1.63T119.6,26.5c0-.47,0-1.17,0-2.09s0-1.56,0-1.9q0-2.86-.34-6.75l3.64-.14q-.24,3.76-.24,6.44c0,4.11.27,6.78.79,8S125.25,32,127.1,32a8.14,8.14,0,0,0,5.15-1.57q0-10.85-.19-14.62l3.51-.14q-.15,3.68-.15,10.15A82.59,82.59,0,0,0,135.85,34.19Z"/>
            <path d="M159.17,13.2l-.31,2.69c-2.43,0-3.76.39-4,1.17v.2a5.35,5.35,0,0,1,1.25,3.48,6.81,6.81,0,0,1-2,5q-2,2-6.18,2a9,9,0,0,1-2.95-.39,2,2,0,0,0-1,1.7,1.62,1.62,0,0,0,1.13,1.66,21.17,21.17,0,0,0,6,.54q7.42,0,7.42,4.93A7.14,7.14,0,0,1,155.71,42a11.67,11.67,0,0,1-7.48,2.3c-3.14,0-5.37-.57-6.71-1.71a5.24,5.24,0,0,1-2-4.11,5.76,5.76,0,0,1,1-3.52A4.05,4.05,0,0,1,143,33.33v-.17a2.87,2.87,0,0,1-1.55-2.85,4.15,4.15,0,0,1,2-3.36v-.16a5.86,5.86,0,0,1-2-1.72,4.78,4.78,0,0,1-.93-3,6.64,6.64,0,0,1,2-5,8.25,8.25,0,0,1,5.94-2,9.3,9.3,0,0,1,5,1.16h.21q.63-3.32,3.28-3.31A6.46,6.46,0,0,1,159.17,13.2Zm-3.5,24.31a2.7,2.7,0,0,0-1.34-2.58c-.89-.51-2.56-.76-5-.76a40.09,40.09,0,0,1-4.57-.23,3.65,3.65,0,0,0-2.38,3.38q0,4.76,6.25,4.76a9.18,9.18,0,0,0,5.17-1.27A3.8,3.8,0,0,0,155.67,37.51Zm-2.71-16a4.08,4.08,0,0,0-1.36-3.29,5.14,5.14,0,0,0-3.45-1.15,5,5,0,0,0-3.3,1.11,3.85,3.85,0,0,0-1.33,3.13,4,4,0,0,0,1.36,3.24,5.3,5.3,0,0,0,3.49,1.12,5,5,0,0,0,3.27-1.09A3.74,3.74,0,0,0,153,21.54Z"/>
            <path d="M177.06,34.21l-3.07.12a8,8,0,0,1-.23-1.82h-.2A9.33,9.33,0,0,1,167,34.7a5.93,5.93,0,0,1-3.87-1.32,4.57,4.57,0,0,1-1.62-3.76,5.69,5.69,0,0,1,2.54-4.83c1.69-1.22,4.84-1.86,9.43-1.92a8.77,8.77,0,0,0,.06-1.08c0-1.6-.42-2.67-1.28-3.2a7.35,7.35,0,0,0-3.87-.8,24.09,24.09,0,0,0-6,.76l.33-2.7a24.55,24.55,0,0,1,6.74-.84,8.71,8.71,0,0,1,5.37,1.44q1.91,1.44,1.9,4.89,0,.91-.09,3.33t-.09,3.21A34.26,34.26,0,0,0,177.06,34.21Zm-3.46-3.79c-.06-2-.1-3.75-.1-5.33a21.3,21.3,0,0,0-5.58.55c-2.14.65-3.2,1.89-3.2,3.73S166,32,168.47,32A7.72,7.72,0,0,0,173.6,30.42Z"/>
            <path d="M193.82,15.66l-.88,3.1a7.79,7.79,0,0,0-2.83-.6,4.56,4.56,0,0,0-4.77,3.49q0,9,.12,12.56H182c.21-4.12.31-7.33.31-9.61a41.21,41.21,0,0,0-.92-8.86l3.42-.49a20.69,20.69,0,0,1,.37,2.87h.16Q187.46,15,190.26,15A12.32,12.32,0,0,1,193.82,15.66Z"/>
        </g>
    </g>
</svg>
