<svg xmlns="http://www.w3.org/2000/svg" xmlns:xlink="http://www.w3.org/1999/xlink" viewBox="0 0 19.9 57.41"><defs><style>.cls-1{fill:url(#linear-gradient);}</style><linearGradient id="linear-gradient" x1="9.95" y1="56.32" x2="9.95" y2="2.24" gradientTransform="matrix(1, 0, 0, -1, 0, 59.41)" gradientUnits="userSpaceOnUse"><stop offset="0" stop-color="#333"/><stop offset="1"/></linearGradient></defs><title>farm_civilians</title><g id="Layer_2" data-name="Layer 2"><g id="Layer_1-2" data-name="Layer 1"><path class="cls-1" d="M16.13,29c.23-.27.16-.22.21-.66a.8.8,0,0,0-.07-.39c-.21-.51-1.24-1.34-1.39-1.66a7,7,0,0,0-1.31-1.85c-.66-.67-3.3-4.33-3.81-5-.28-.37.27-5.84.27-6.22s-.9-3-.9-3.46,0-2.06,0-2.06,1.36.15,1.66-.08a.8.8,0,0,0,.3-.6l.22-.45s-.07-.67-.07-1,.6.38.6-.07-1.13-1.73-1.13-2.18.38-.15.38-.53-.53-.52-1.06-1.43A3.78,3.78,0,0,0,6.61.05a3.61,3.61,0,0,0-3,3.38A5.76,5.76,0,0,0,5.48,7.18a2.52,2.52,0,0,1-1.12,1c-.68.23-.83.9-1.43,1.73s-1.73,2.7-1.65,3.53S0,18.37,0,19.28a13.61,13.61,0,0,0,.68,3.08,22,22,0,0,0,1.57,3.38s.08,2.7.08,4a2,2,0,0,0,1.35,1.72s-.07,7.81-.53,9.09a19.6,19.6,0,0,1-2,3.46s-.08,5-.08,6.76-.6,2.4-.75,3.38A3.23,3.23,0,0,0,.68,56l7.88.22v-.9c0-.9-2.48-.68-3.23-1a2,2,0,0,1-1-1.88,20.55,20.55,0,0,1,.15-4.66c.38-1.35,2.41-6.91,2.41-6.91l1-2.63a8.81,8.81,0,0,1,1.5,2.18c.61,1.28.45,1.43-.15,2.63s-.37,2.33.23,4.06a25.58,25.58,0,0,1,1.2,5.78V57s7.51.15,8.34.15,1,.83,1-.37-1.2-1-3.15-1.28-3.3-3.76-3.3-3.76-.08-9.31-.16-12.24-.52-3.68-.75-6.23-2.25-5.86-2.25-5.86L10,24.68l0-.76a11.08,11.08,0,0,1,2.15,2.19,5.82,5.82,0,0,0,1.31,1.35c.12.06.24.05.3.19.58,1.52.7,1.75,1.33,1.72A1.2,1.2,0,0,0,16.13,29Z"/></g></g></svg>