<svg xmlns="http://www.w3.org/2000/svg" viewBox="0 0 56.94 44.47"><title>farm_horses</title><g id="Layer_2" data-name="Layer 2"><g id="Layer_1-2" data-name="Layer 1"><path d="M55.31,44.43c.45-.14.89-.29,1.34-.41.26-.07.31-.23.28-.48a1.47,1.47,0,0,0-.71-1.07,7.24,7.24,0,0,0-1.14-.67,4.77,4.77,0,0,1-1.94-1.62c-.58-.84-1.16-1.69-1.7-2.57a3.13,3.13,0,0,1-.39-1.11,8.72,8.72,0,0,0-1.24-3.18,29.37,29.37,0,0,1-2.62-5.66,16.55,16.55,0,0,1-.41-1.72.32.32,0,0,1,0-.14A8.36,8.36,0,0,0,47,22.35c-.1-.91-.22-1.83-.29-2.75a6.38,6.38,0,0,1,.58-2.75A15.7,15.7,0,0,0,48.31,13a6.92,6.92,0,0,1,.34-1.24c.05-.17.17-.33.37-.18a14.64,14.64,0,0,0,2.8,1.26,4.32,4.32,0,0,1,1.9,1.64,1.44,1.44,0,0,0,2.51.14,2.31,2.31,0,0,0,.41-2.42,11.24,11.24,0,0,0-.82-1.67c-.41-.71-.86-1.38-1.31-2.06a2.18,2.18,0,0,1-.4-1.28,1.94,1.94,0,0,0-.48-1.36c-.35-.42-.73-.83-1.08-1.26s-.7-.65-.82-1a1.74,1.74,0,0,1,0-.72A7.62,7.62,0,0,0,51.59.43.26.26,0,0,0,51.5.26c-.13-.09-.28.11-.33.26a4,4,0,0,1-.84,1.38,1.5,1.5,0,0,1-.69.47c-1.08.3-1.12-1.8-1.52-2.37a8.59,8.59,0,0,0-.89,2.23,1.16,1.16,0,0,1-.22.49c-.51.54-1.39,0-2,.24a6.28,6.28,0,0,0-.65.3c-1.13.49-2.48,0-3.66.4,1-.17,2,.63,3,.26a3.17,3.17,0,0,1-1.73.23,3.9,3.9,0,0,0-1.92,0c.21-.08.79.25,1,.33a7,7,0,0,0,1,.22c-.29,0-.64,0-.94,0a2.61,2.61,0,0,0-1.54,0,3,3,0,0,0-.74.63,6.76,6.76,0,0,1,1.27.06l.93.1a8.75,8.75,0,0,0-1,0,2.28,2.28,0,0,0-.86.13,4.63,4.63,0,0,0-.46.31,1.22,1.22,0,0,1-.89.17c.09.27.42.34.7.37a9.47,9.47,0,0,1,1.19.17,3.46,3.46,0,0,0,1.09.25C39.8,7,38,6.3,37.4,7.41a4.11,4.11,0,0,1,1.74.27c-.81-.39-1.68.35-2.49.18a1.78,1.78,0,0,0,.58.26,4.71,4.71,0,0,1,1.77.4,13.18,13.18,0,0,0-1.94.35A2,2,0,0,0,36,9c.23-.09.44.14.66.25s.6.09.88.22c-.34,0-.68,0-1,0a2.77,2.77,0,0,1-.95.1c.59.14,1.3.84,1.93.57a2,2,0,0,1-.91.09c-.67,0-.7.36-1,.82a.54.54,0,0,1-.53.21,1.77,1.77,0,0,0,1.22.08c.27-.08.48-.33.71,0s-.18.65-.35.92a2.86,2.86,0,0,1-1.6,1.48c-.69.19-1.36.47-2,.72a8.49,8.49,0,0,1-5,.32c-1.11-.26-2.22-.47-3.34-.67a6.84,6.84,0,0,0-3.64.31A43.4,43.4,0,0,0,16,16.61a.81.81,0,0,1-.37.12,1.16,1.16,0,0,1-.43-.15,2.61,2.61,0,0,0-2.8.66c-.94.89-1.15,2.18-2.09,3.06A7.09,7.09,0,0,1,6.7,22.09,4.14,4.14,0,0,0,9,21.7a7,7,0,0,1-3.31,2.62,2.81,2.81,0,0,0,1.44,0,13.39,13.39,0,0,0-1.92,1c-.33.21-1.31.79-1.71.58a2.33,2.33,0,0,0,1.6.21,9.8,9.8,0,0,0-1.36.79,6.92,6.92,0,0,1-1.61.47,3.57,3.57,0,0,0,2.72.15c-.54.19-1,.79-1.56,1a4.87,4.87,0,0,1-1.58.31,2.05,2.05,0,0,0,1.35.68A6.1,6.1,0,0,1,0,30.09a5.28,5.28,0,0,0,3.93.47,2.21,2.21,0,0,1-.9.73,19.41,19.41,0,0,1,2-.39,6.22,6.22,0,0,0,1.55-.71,4.12,4.12,0,0,1-.59,1A14.58,14.58,0,0,0,14,23.3c.11-.24.26-.47.4-.71h.1c.3,1.54.62,3.08.89,4.62a4.22,4.22,0,0,1-.07,1.32,2,2,0,0,1-1.09,1.68,2.33,2.33,0,0,0-1.35,2.3c0,1,0,2,0,3a17.45,17.45,0,0,1-.31,2,.74.74,0,0,1-.13.33,2.21,2.21,0,0,0-.58,1.53c0,.25-.17.39-.43.45a2.76,2.76,0,0,0-.86.31.81.81,0,0,0-.35.57,3.61,3.61,0,0,0,.13,1.13.92.92,0,0,0,1.33.62,3.78,3.78,0,0,0,1-.81c.49-.5.94-1.05,1.42-1.55a1.5,1.5,0,0,0,.3-1.35A7.46,7.46,0,0,1,16.85,32c.63-.53,1.23-1.08,1.81-1.64a5.84,5.84,0,0,1,1.94-1.2,1,1,0,0,0,.36-.3,4.33,4.33,0,0,0,.72-1.89,1.17,1.17,0,0,1,.49-1c.38.72,1.15.9,1.78,1.28a2,2,0,0,1,1,1.4c.15.84.23,1.68.31,2.53,0,.47,0,.95,0,1.43a2.71,2.71,0,0,0,.91,2c1.07,1.07,2.15,2.14,3.17,3.27a12.49,12.49,0,0,1,1.14,1.69l.42.62a1.54,1.54,0,0,0,1,.64.82.82,0,0,1,.75,1.13,1.07,1.07,0,0,0,.79,1.42,2.36,2.36,0,0,0,1.79,0c.37-.17.4-.26.23-.63s-.28-.64-.42-.95A2.28,2.28,0,0,0,34,40.46a.92.92,0,0,1-.34-.31c-.86-1.07-1.72-2.14-2.57-3.22-.46-.6-.9-1.21-1.33-1.83a3.65,3.65,0,0,1-.61-2.1c0-1.34,0-2.68-.05-4,0-.33,0-.67.06-1.1.63.1,1.22.16,1.79.29.9.21,1.78.5,2.68.69a10.17,10.17,0,0,0,3.92-.2l3.27-.57,1.84,2.85a7.67,7.67,0,0,1,1.16,2.45,1.64,1.64,0,0,1-.61,1.73,16.84,16.84,0,0,1-1.66,1.14,6,6,0,0,0-1.9,1.61c-.26.34-.34.31-.53-.06a.52.52,0,0,0-.38-.29,1.2,1.2,0,0,0-.67.17,2.3,2.3,0,0,0-.52,3.36.46.46,0,0,0,.65.09,2.21,2.21,0,0,0,.57-.53A5.46,5.46,0,0,1,41,38.82a8.87,8.87,0,0,0,2.07-1.4,17.45,17.45,0,0,1,1.49-1.06l.12-.07a2.46,2.46,0,0,0,1.37-3.35.5.5,0,0,1,0-.27c.18.24.36.47.53.72.71,1,1.4,2,2.12,3,.43.6.89,1.18,1.31,1.79a7.71,7.71,0,0,1,1.09,2.41,3.49,3.49,0,0,0,.31.75,1.32,1.32,0,0,0,1.12.72c.66,0,.85.26.9.92,0,.11,0,.22,0,.32a1,1,0,0,0,1,1.1l.21,0Z"/></g></g></svg>