<svg xmlns="http://www.w3.org/2000/svg" xmlns:xlink="http://www.w3.org/1999/xlink" viewBox="0 0 58.01 58.01"><defs><style>.cls-1{fill:url(#linear-gradient);}.cls-2{fill:url(#radial-gradient);}.cls-3{fill:none;stroke:#4d4d4d;stroke-miterlimit:10;}.cls-4{fill:#4d4d4d;}</style><linearGradient id="linear-gradient" y1="29" x2="58" y2="29" gradientTransform="translate(-10.71 18.73) rotate(-30.49)" gradientUnits="userSpaceOnUse"><stop offset="0" stop-color="#e28909"/><stop offset="0.13" stop-color="#ee7905"/><stop offset="0.32" stop-color="#fb6901"/><stop offset="0.46" stop-color="#ff6300"/><stop offset="0.58" stop-color="#f86e00"/><stop offset="0.83" stop-color="#ed8100"/><stop offset="1" stop-color="#e98800"/></linearGradient><radialGradient id="radial-gradient" cx="29" cy="29" r="27.27" gradientUnits="userSpaceOnUse"><stop offset="0.23" stop-color="#d49c00"/><stop offset="0.25" stop-color="#d69b00"/><stop offset="0.52" stop-color="#ec9200"/><stop offset="0.78" stop-color="#fa8c00"/><stop offset="1" stop-color="#ff8a00"/></radialGradient></defs><title>move</title><g id="Layer_2" data-name="Layer 2"><g id="Layer_1-2" data-name="Layer 1"><circle class="cls-1" cx="29" cy="29" r="29"/><circle class="cls-2" cx="29" cy="29" r="27.27"/><path class="cls-3" d="M10.28,21.09C20.54,8,36.74,7.3,47,19.35"/><path class="cls-4" d="M38.84,17.37a.5.5,0,0,1,.62-.34l7.34,2.18-1.13-7.57a.5.5,0,0,1,.42-.57.51.51,0,0,1,.57.42l1.24,8.34a.51.51,0,0,1-.17.46.5.5,0,0,1-.47.1L39.18,18a.49.49,0,0,1-.34-.62Z"/><path class="cls-3" d="M47.73,36.92C37.47,50,21.27,50.71,11,38.66"/><path class="cls-4" d="M19.17,40.64a.5.5,0,0,1-.62.34L11.21,38.8l1.13,7.57a.5.5,0,1,1-1,.15l-1.24-8.34a.51.51,0,0,1,.17-.46.49.49,0,0,1,.47-.1L18.83,40a.49.49,0,0,1,.34.62Z"/></g></g></svg>