<svg xmlns="http://www.w3.org/2000/svg" viewBox="0 0 58.01 58.01"><defs><style>.cls-1{fill:none;}.cls-2{fill:#fff;}</style></defs><title>pass_turn_icon</title><g id="Layer_2" data-name="Layer 2"><g id="Layer_1-2" data-name="Layer 1"><circle class="cls-1" cx="29" cy="29" r="29"/><path d="M38.71,30.46l-.84,0c.52.85-.68,3.91-3.17,3.49.33,1.67-1.09,2.7-2.7,2.28a8.79,8.79,0,0,0-4.64,0c-3,.55-6.48,1.48-10-.6a.57.57,0,0,0-.77.21c-.17.39,0,1.54-1,1.57H11.9c-1.29,0-2.33-1.9-2.31-7.92,0-6.27.09-8.73,2.68-8.75s3.25,0,3.25,0c.81,0,.94.56,1.07.91a.45.45,0,0,0,.59.2A25.27,25.27,0,0,1,23.5,20c2.58-.27,3.59-1.05,5.32-.79,2.06.32,8.71.1,10.7.07s5.07.61,9.21.51c4-.09,4,4.49.42,4.28-2.82-.16-2.91.18-3.88.06a26.21,26.21,0,0,0-4.91.08,23.41,23.41,0,0,0-3,.05,12.4,12.4,0,0,1,2.41,1.14C41.76,26.43,40.58,30.34,38.71,30.46Z"/><path class="cls-2" d="M14.77,28.84a45.19,45.19,0,0,0,.56,7.23c.13.37-.14.6-.7.55-.38,0-2.33,0-2.33,0-.86,0-1.9-.88-1.9-7.55,0-6.9.32-7.78,2.36-7.78l2.52.07a.49.49,0,0,1,.35.28C15.83,22,15,22.53,14.77,28.84Z"/><path class="cls-2" d="M20.66,29.51a.41.41,0,0,0-.1.4c.23.43.74.1,1.13.07s2.09-.33,2.73.09a4.88,4.88,0,0,1,2.37,3,2.56,2.56,0,0,0,1.46,1.58c.59.19.49.8,0,.84a22.78,22.78,0,0,1-6,.69c-3.36-.19-6.5-.84-6.71-5.3a33.82,33.82,0,0,1,.39-7.13c.36-1.26,1.39-1.25,2.29-1.72,3.74-1.61,6.24-1.51,8.31-2a2.49,2.49,0,0,1,2.48.24c2.21,1.55,4.88,2.08,5.53,2.55.45.28.58.43.65.59s.58.31,1,.63a2.74,2.74,0,0,0,.65.39c-.37.49-.71-.05-1.22,1a1.37,1.37,0,0,0,.08.83c.25.43,1.16.5,1.52.56l1,.17c.86.16,1.12-.72,1.15-.4.15,1.57-2,1.25-2.65,1.13a12.88,12.88,0,0,1-2-.58c-.3-.23-1.89-.28-1.88-1.4,0-.18,0-.59-.48-.4s-2.18.12-2.44-.4a1.08,1.08,0,0,0-.5-.51c-.26-.11-.41,0-.37.33s0,.88-.51,1a1.11,1.11,0,0,1-1-.07c-.35-.18-1-.6-1.3-.57s-.43.26.14.53a1.21,1.21,0,0,1,.26,2c-1.29,1.41-.88,1.52-5.46,1.67A.66.66,0,0,0,20.66,29.51Z"/><path class="cls-2" d="M28.16,29.6c-.6-.77-1.06-1-.49-1.77.06-.15.27-.15.84,0,.3.07,1.31,1.28.43,2.1C28.73,30,28.5,30.1,28.16,29.6Z"/><path class="cls-2" d="M27.2,32c-.36.12-.95-1.58-.92-1.69s.06-.34.81-.39A1.32,1.32,0,0,1,28,31.27C27.92,31.76,27.27,32,27.2,32Z"/><path class="cls-2" d="M30.22,27.72c-.32-.36-1-1-.84-1.38s.53-.64,1.28-.37a1.13,1.13,0,0,1,.43,2C30.78,28.09,30.66,28.19,30.22,27.72Z"/><path class="cls-2" d="M34,34c.53,2.19-1.88,2-2.86,1.45-1.56-.93-2.91-1.16-3.45-1.79-.3-.35-.74-1.25-.3-1.29a1.79,1.79,0,0,0,.95-.56c.09-.08,0-.68.09-.67s-.06.65,1.44,1.39a19.93,19.93,0,0,0,2.55,1,10,10,0,0,0,1.43.36C34,33.85,34,33.92,34,34Z"/><path class="cls-2" d="M37,30.51a18.27,18.27,0,0,0-2.72,0c-2,.21-2.94-.57-3.38-1.15-.42-.39-.53-.71-.86-1s-.54-.66-.37,0c.09.34.36.55.14,1.12a1.82,1.82,0,0,1-.88.92c-.07,0-.15,0-.09.07a2.92,2.92,0,0,0,2.08,1.67c2.27.59,3.27,1.15,3.75,1.23a.81.81,0,0,0,.31,0,1.73,1.73,0,0,0,1.17-.33,2.56,2.56,0,0,0,1.08-2.37C37.13,30.61,37.06,30.51,37,30.51Z"/><path class="cls-2" d="M40,26.69c.16,0,.43,2.45-1.28,3.08a5.67,5.67,0,0,1-2.13.11c-1.43-.07-2.58,0-3.17,0a2.63,2.63,0,0,1-2-.7c-.23-.25-.75-.64-.4-.79a1.27,1.27,0,0,0,.86-.76c.4-.74-.12-1.24.34-1a3,3,0,0,1,.85.49c1.62,1.15,6.78,2.38,6.66-.21C39.8,26.71,40,26.58,40,26.69Z"/><path class="cls-2" d="M37.41,24.91a1.37,1.37,0,0,1,.72.25c.32.14,1.48.35.95,1s-2.11.09-2.66-.09a.47.47,0,0,1-.33-.47C36.09,25.42,36.23,24.91,37.41,24.91Z"/><path class="cls-2" d="M46.07,20.42c-1.27,0-4.21-.65-5.77-.35-1.89-.35-5.18,0-6.27-.07a31.1,31.1,0,0,0-4.44,0,16.68,16.68,0,0,0,4.23,1.9,3.34,3.34,0,0,1,2.11,1.43c1.63.27,4,.38,4.12.15s.08-.23.38-.17.13.13.63.15c2.57.07,3.93,0,3.93,0,.57,0,.38-.24.58-.3s0,.14.65.21a24.45,24.45,0,0,0,3.41.12c2,0,2.48-3-.92-3.14A23.75,23.75,0,0,0,46.07,20.42Z"/></g></g></svg>