<svg xmlns="http://www.w3.org/2000/svg" viewBox="0 0 58.01 58.01">
    <defs>
        <style>.cls-1{fill:url(#linear-gradient);}.cls-2{fill:url(#radial-gradient);}.cls-3{fill:#fff;}</style>
        <linearGradient id="linear-gradient" y1="29" x2="58" y2="29"
                        gradientTransform="translate(-10.71 18.73) rotate(-30.49)" gradientUnits="userSpaceOnUse">
            <stop offset="0" stop-color="#e28909"/>
            <stop offset="0.13" stop-color="#ee7905"/>
            <stop offset="0.32" stop-color="#fb6901"/>
            <stop offset="0.46" stop-color="#ff6300"/>
            <stop offset="0.58" stop-color="#f86e00"/>
            <stop offset="0.83" stop-color="#ed8100"/>
            <stop offset="1" stop-color="#e98800"/>
        </linearGradient>
        <radialGradient id="radial-gradient" cx="29" cy="29" r="27.27" gradientUnits="userSpaceOnUse">
            <stop offset="0.23" stop-color="#d49c00"/>
            <stop offset="0.25" stop-color="#d69b00"/>
            <stop offset="0.52" stop-color="#ec9200"/>
            <stop offset="0.78" stop-color="#fa8c00"/>
            <stop offset="1" stop-color="#ff8a00"/>
        </radialGradient>
    </defs>
    <title>Recurso 4</title>
    <g id="Capa_2" data-name="Capa 2">
        <g id="Layer_1" data-name="Layer 1">
            <circle class="cls-1" cx="29" cy="29" r="29"/>
            <circle class="cls-2" cx="29" cy="29" r="27.27"/>
            <path d="M39.08,32.35l-.84,0c.52.86-.68,3.91-3.17,3.49.33,1.67-1.09,2.7-2.71,2.28a8.75,8.75,0,0,0-4.63,0c-3,.55-6.48,1.48-10-.6a.57.57,0,0,0-.77.21c-.17.39,0,1.55-1,1.57H12.27c-1.3,0-2.33-1.9-2.31-7.92,0-6.27.09-8.72,2.68-8.75s3.25,0,3.25,0c.81,0,.94.56,1.07.92a.46.46,0,0,0,.59.2,24.69,24.69,0,0,1,6.32-1.84c2.58-.27,3.58-1.05,5.32-.78,2.06.32,8.71.1,10.7.07s5.06.6,9.21.51c4-.09,4,4.49.42,4.28-2.82-.16-2.91.18-3.88.06a26.21,26.21,0,0,0-4.91.08,22.69,22.69,0,0,0-3,0,13.74,13.74,0,0,1,2.41,1.14C42.13,28.33,41,32.24,39.08,32.35Z"/>
            <path class="cls-3"
                  d="M15.14,30.74A43.75,43.75,0,0,0,15.7,38c.13.37-.15.6-.7.55-.39,0-2.34,0-2.34,0-.85,0-1.9-.88-1.9-7.55.05-6.89.33-7.78,2.37-7.78l2.52.08a.45.45,0,0,1,.35.27C16.2,23.9,15.32,24.42,15.14,30.74Z"/>
            <path class="cls-3"
                  d="M21,31.41a.38.38,0,0,0-.1.39c.23.44.74.1,1.13.07s2.09-.32,2.73.1a4.84,4.84,0,0,1,2.36,3,2.61,2.61,0,0,0,1.46,1.57c.6.19.5.8,0,.85a23,23,0,0,1-6,.68c-3.36-.18-6.51-.84-6.72-5.3a34.45,34.45,0,0,1,.4-7.13c.36-1.26,1.39-1.25,2.29-1.71,3.74-1.61,6.24-1.51,8.31-2a2.48,2.48,0,0,1,2.48.23c2.21,1.56,4.88,2.09,5.53,2.55.45.29.58.43.65.6s.58.3,1,.62a2.78,2.78,0,0,0,.65.4c-.37.48-.71-.06-1.22,1a1.29,1.29,0,0,0,.08.83c.25.43,1.16.5,1.52.57l.95.16c.86.17,1.11-.71,1.14-.4.16,1.57-1.95,1.25-2.64,1.13a11.79,11.79,0,0,1-2-.57c-.3-.24-1.9-.28-1.88-1.41,0-.18,0-.58-.48-.4s-2.18.12-2.45-.39a1,1,0,0,0-.49-.51c-.26-.12-.41,0-.37.32s0,.88-.51,1a1.11,1.11,0,0,1-1-.07,3.87,3.87,0,0,0-1.3-.58c-.24.08-.43.27.14.53a1.22,1.22,0,0,1,.26,2c-1.3,1.4-.88,1.51-5.46,1.67A.58.58,0,0,0,21,31.41Z"/>
            <path class="cls-3"
                  d="M28.53,31.49c-.6-.77-1.06-1-.49-1.77.06-.14.27-.14.84,0,.3.07,1.31,1.28.43,2.09C29.1,31.91,28.87,32,28.53,31.49Z"/>
            <path class="cls-3"
                  d="M27.57,33.88c-.36.12-.95-1.58-.92-1.69s.06-.33.81-.39a1.32,1.32,0,0,1,.88,1.36C28.29,33.65,27.64,33.86,27.57,33.88Z"/>
            <path class="cls-3"
                  d="M30.59,29.61c-.32-.35-1.05-1-.84-1.37s.53-.64,1.28-.37a1.12,1.12,0,0,1,.43,2C31.15,30,31,30.09,30.59,29.61Z"/>
            <path class="cls-3"
                  d="M34.41,35.86c.52,2.19-1.88,2-2.86,1.45-1.56-.93-2.91-1.16-3.45-1.78-.3-.35-.74-1.25-.3-1.3a1.83,1.83,0,0,0,.95-.56c.09-.08,0-.68.09-.66s-.06.64,1.44,1.38a19.93,19.93,0,0,0,2.55,1,10,10,0,0,0,1.43.36C34.39,35.75,34.4,35.81,34.41,35.86Z"/>
            <path class="cls-3"
                  d="M37.33,32.4a19.93,19.93,0,0,0-2.72,0c-2,.21-2.94-.57-3.38-1.15-.42-.39-.53-.71-.86-1s-.54-.67-.37,0c.09.34.36.55.14,1.13a1.9,1.9,0,0,1-.88.92c-.07,0-.15,0-.09.07a3,3,0,0,0,2.08,1.67c2.27.58,3.27,1.14,3.75,1.23h.31A1.79,1.79,0,0,0,36.48,35a2.59,2.59,0,0,0,1.08-2.38C37.5,32.5,37.43,32.4,37.33,32.4Z"/>
            <path class="cls-3"
                  d="M40.4,28.58c.16,0,.43,2.46-1.28,3.08a5.48,5.48,0,0,1-2.13.12c-1.43-.07-2.59,0-3.17,0a2.63,2.63,0,0,1-2-.7c-.23-.25-.75-.64-.4-.78a1.32,1.32,0,0,0,.86-.76c.4-.75-.12-1.24.34-1a3.09,3.09,0,0,1,.84.49c1.63,1.15,6.79,2.38,6.67-.21C40.16,28.6,40.33,28.47,40.4,28.58Z"/>
            <path class="cls-3"
                  d="M37.78,26.8a1.47,1.47,0,0,1,.72.26c.32.13,1.48.34,1,1s-2.11.09-2.66-.09a.45.45,0,0,1-.33-.46C36.46,27.31,36.6,26.8,37.78,26.8Z"/>
            <path class="cls-3"
                  d="M46.44,22.31c-1.28,0-4.22-.65-5.77-.34-1.89-.36-5.18,0-6.27-.08a32.8,32.8,0,0,0-4.45,0,16.27,16.27,0,0,0,4.24,1.9,3.36,3.36,0,0,1,2.11,1.44c1.63.26,4,.38,4.12.15s.08-.24.38-.18.13.13.63.15c2.56.07,3.93,0,3.93,0,.57,0,.38-.25.58-.3s.05.14.65.2A22.7,22.7,0,0,0,50,25.4c2,0,2.48-3-.92-3.14C46.76,22.17,46.79,22.38,46.44,22.31Z"/>
        </g>
    </g>
</svg>
